<svg width="873" height="736" viewBox="0 0 873 736" fill="none" xmlns="http://www.w3.org/2000/svg">
<path d="M0 0V701V718.008V735.016H17.0079H255.162H284.623H301.631H872.723L872.199 0H503.99H0ZM34.0157 34.0157H445.076L316.514 256.699L226.328 100.498H99.5V634.512H233.518V380.986L316.18 524.158L438.476 312.328L514.311 180.982V354.184L641.139 134.514H725.742L591.222 367.508L725.742 600.496H641.139L514.311 380.825V600.496H433.516V426.097L274.801 701H34.0157V34.0157ZM484.352 34.0157H838.205L838.678 701H314.076L399.5 553.037V634.512H548.326V507.772L621.502 634.512H784.658L630.502 367.508L784.658 100.498H621.502L548.326 227.244V54.0296L409.024 295.32L316.18 456.127L199.502 254.033V600.496H133.516V134.514H206.691L316.506 324.731L484.352 34.0157Z" fill="url(#paint0_linear_1_1635)"/>
<defs>
<linearGradient id="paint0_linear_1_1635" x1="0.000117165" y1="367.508" x2="872.723" y2="367.508" gradientUnits="userSpaceOnUse">
<stop stop-color="#5BA5FF"/>
<stop offset="1" stop-color="#001853"/>
</linearGradient>
</defs>
</svg>
